<svg xmlns="http://www.w3.org/2000/svg" viewBox="0 0 1022.98 335.34"><defs><style>.cls-1{fill:#fff;}</style></defs><title>MisturaFinaWhiteLogo</title><g id="Camada_2" data-name="Camada 2"><g id="white"><path class="cls-1" d="M499.56,3.44c-30.24,2.22-44.75,9.1-67.62,22.38-15.49,8.85-30.25,36.89-48.94,75-7.13,13.53-17.46,37.14-17.46,50.91,0,5.16,2.71,11.8,7.87,11.8,10.58,0,21.4-22.87,21.64-23.61,1.48-.49,1.48.25,2.71-.49-9.59,20.66-17.46,27.79-27.79,27.79-12.05,0-19.92-10.33-19.92-25.08,0-24.84,23.85-60.25,52.13-95.91a256.42,256.42,0,0,0-41.8,40.58c-24.1,29.75-48.2,69.84-60,82.38a8.9,8.9,0,0,1-1.23-3.2c5.9-17,8.11-17.46,8.11-33.44,0-55.09,2.21-63.45,16.23-93-21.64,22.38-40.08,75.25-52.62,98.12-9.35,17-36.15,31-61.73,31-37.13,0-69.34-27.29-69.34-59,0-35.66,27.29-63.94,58.28-63.94,26.55,0,47.95,18.93,47.95,42.79C246,113.61,223.16,135,202.5,135,183.32,135,173,120.74,173,101.56c0-7.87,3-16,4.92-21.39l3,.73c-2.21,5.41-5.16,13.78-5.16,20.66,0,18.2,10.57,30.74,26.8,30.74,19.68,0,40.82-20.41,40.82-43.77,0-23.12-20.9-40.09-45.24-40.09-30,0-55.58,28.28-55.58,61.24,0,22.13,21.64,56.31,66.64,56.31,27.05,0,48-23.12,63.45-51.64C302.59,60,319.8,28,341.93,14.75c0,0-37.62-12.78-46-12.78-53.12,0-52.38,35.41-52.38,39.34,0,15.5,10.33,28.53,23.85,28.53A18.94,18.94,0,0,0,280,64.67h1.48C275.29,73.53,271.11,76,264.23,76,248,76,235.7,62.71,235.7,45c0-15.49,7.38-45,60.25-45,8.11,0,48.2,13.28,48.2,13.28C352,8.85,358.9,9.59,358.9,14c0,3.93-5.9,5.65-10.57,2.95-6.4,8.85-10.82,24.34-13,39.84-1.72,14,1.23,23.36-.73,37.37-1.72,12.79-6.89,24.59-9.59,33.2,41.31-59.75,73-86.07,104.75-104C453.09,10.33,464.4,3,499.81.74Z"/><path class="cls-1" d="M415,166.24c-8.6,0-15.24-5.17-15.24-14.76,0-16.72,16-39.59,24.59-55.33C426,93,426.52,91,431,91c7.37,0,4.91,2.21,8.36,2.21,2,0,6.39-6.64,9.34-7.38l-31.23,59.51a21.7,21.7,0,0,0-2.46,9.35c0,3.44,2,6.39,5.9,6.39,9.35,0,51.15-46.72,57.05-53.85l2,1.72C460.45,132.05,430.7,166.24,415,166.24Zm38.12-92a9.56,9.56,0,0,1-9.35-9.6,13,13,0,0,1,12.55-12.78,8.56,8.56,0,0,1,8.85,8.36C465.13,67.38,459.23,74.27,453.08,74.27Z"/><path class="cls-1" d="M487.25,153.2c-5.65,6.64-15.24,13.53-27.54,13.53-12.78,0-19.42-6.89-19.42-17.46,0-7.13,4.67-13.77,11.8-13.77,6.88,0,12.29,8.85,17.46,10.82,6.64-4.68,9.34-16.23,9.34-21.64,0-5.66-4.67-14-4.67-23.86,0-10.32,3.94-23.6,13-23.6,3.69,0,6.15,1.47,6.15,4.42,0,7.38-4.42,13.28-7.62,18.94,0,0,7.38,16.23,7.38,26.8,0,8.61-2.71,19.67-4.43,22.38,16.48-3.69,28.77-7.87,49.92-42.54l2,1.72C517.75,147.05,502.26,151,487.25,153.2Zm-33.44-13.28a4.7,4.7,0,0,0-4.43,4.92c0,4.43,3.69,6.15,7.87,6.89,3.94.73,8.36-.25,9.84-2.95C461.19,146.07,458,139.92,453.81,139.92ZM487.5,79.43c-1.72,0-4.43,4.67-4.67,10.33a17.89,17.89,0,0,0,1.47,7.87c5.17-7.38,6.15-11.07,6.15-15.5A2.53,2.53,0,0,0,487.5,79.43Z"/><path class="cls-1" d="M575.29,139.92c-14.51,19.68-31.23,26.32-43.28,26.32-7.13,0-13-7.38-13-16.23,0-6.89,2-10.58,5.17-17l19.43-39.1h-18.2l3.93-3.69h19.92C563.73,80.9,569.39,75,588.08,46.72h2.7L565.94,90.25h18.45l-1.48,3.69H564.47l-25.58,44.75c-2.95,5.17-5.65,9.35-5.65,13,0,3.19,3.19,9.34,6.64,9.34,9.83,0,25.82-13.77,33-23.11,0,0,16.47-20.91,23.61-30.74l2,1.72C590,122.22,575.29,139.92,575.29,139.92Z"/><path class="cls-1" d="M632.33,166.24c-7.86,0-13.27-6.4-14.5-20.66-12.79,14.51-17,20.66-30.25,20.66-10.08,0-12.54-8.37-12.54-12.3,0-6.89,1.23-13.77,8.11-26.07L601.6,94.43c2-3.44,4.18-3.44,6.64-3.44,2,0,4.91,1.72,8.11,1.72,2.21,0,6.15-6.15,8.85-6.89l-29.26,55.09c-3.44,6.39-4.43,12.05-4.43,13.77,0,3.44,1.73,6.39,6.4,6.39,3.44,0,18.93-15.25,28.77-32.7l19.18-34.19A5.8,5.8,0,0,1,651.52,91c3.68,0,5.16,1.72,8.85,1.72,2.21,0,5.65-5.66,8.85-6.89L638,144.6c-3,5.41-3.93,7.62-3.93,10.82,0,3,2,4.91,6.39,4.91,11.07,0,36.64-23.36,58-53.11l2,1.72C690.61,123.69,658.89,166.24,632.33,166.24Z"/><path class="cls-1" d="M706.6,166.24c-8.12,0-13-6.64-13.28-18.2-.25-10.82,20.65-35.9,20.65-42.79,0-1.48,0-1.72-1-1.72-5.16,0-6.64,7.62-15.49,7.62-3.94,0-6.15-3.93-6.15-9.34,0-8.12,7.62-18.69,14.26-18.69a5.76,5.76,0,0,1,5.9,5.65c0,4.43-3.68,11.32-8.6,17,12.54-10.33,19.67-17,25.82-17,5.16,0,8.61,4.68,8.61,9.59,0,5.17-2.71,7.87-5.17,12l-19.43,33.2c-3,4.92-4.67,8.61-4.67,10.08,0,4.68,2.95,6.64,6.4,6.64,16.72,0,38.36-27.29,56.31-53.11l2,1.72C740.53,157.63,723.56,166.24,706.6,166.24Zm-1-79.43c-4.91,0-10.08,10.57-10.08,15,0,3.19,1.23,4.18,2.71,4.18,4.67-5.9,9.59-13.53,9.59-17A2.05,2.05,0,0,0,705.61,86.81Z"/><path class="cls-1" d="M812.83,166.24c-10.82,0-14.76-5.91-18.69-14.51-8.61,11.55-16,14.51-23.36,14.51-9.59,0-16.73-8.12-16.73-24.35,0-22.13,22.87-53.12,55.09-53.12,5.16,0,8.85.74,12.54,5.91,0,0,2.7-3.69,5.16-3.69,2.95,0,7.38,1.47,10.33,1.47,2,0,5.41-5.65,8.12-6.64l-32.22,60.5c-3.44,6.39-4.18,8.6-4.18,11.31,0,2.46,1.72,4.92,5.41,4.92,9.1,0,39.84-29.51,61.23-55.33l2,1.72C851.43,140.91,825.12,166.24,812.83,166.24Zm0-73c-21.4,0-44.27,47.46-44.27,61.23,0,5.17.74,8.12,4.92,8.12,9.1,0,15.49-9.59,19.43-16.23C803,129.1,818,103,818,99.1,818,96.4,816.27,93.2,812.83,93.2Z"/><path class="cls-1" d="M555,195.65c-.94,3.89-6.37,9.2-14.16,9.2-13.34,0-20.77-8.38-32.69-12.15-11.21-3.54-16.64-4.84-27.26-4.84-20.06,0-26.2,7.08-26.2,7.08,2.12,1.18,13.45,12.51,13.45,28.68,0,18.88-15.69,35.4-29.74,35.4-9.55,0-19-8.14-19-17,0-4.61.71-6.14,2-10.27a3.6,3.6,0,0,1,.83,1.65,23.81,23.81,0,0,0-1.54,8.62c0,8,8.62,15.69,17.7,15.69,14.52,0,28.45-16.76,28.45-34.1,0-14.75-9.8-25.14-13.58-28-4.48,2.12-13.57,15.46-13.57,25.49,0,10.86,6.73,17.58,16.41,15.93v1.3c-10.51,1.77-17.71-5.19-17.71-17.23,0-14.52,11.81-24.9,13-26.55a35,35,0,0,0-18.18-5c-24.07,0-41.3,21.71-41.3,44.61,0,25.13,17,44.72,41.3,44.72,8.38,0,18.53-4,25.85-11.21,5.9-5.78,6.49-5.07,22.54-48.5l-4.49-.94.59-1.77,4.72.94s4.13-6.25,7.32-8.85c7.79-6.61,12.39-7.32,25.84-7.79v.47c-.7,1.3-10.62,1.65-14.39,3.54-6,3-10.27,14.16-10.27,14.16l7,1.3c1.18-3.89,2.95-8,7.79-8a3.78,3.78,0,0,1,3.78,4c0,3.42-4.25,6.14-7,6.49.48,8-.7,19.24-10,19.24a5.78,5.78,0,0,1-4-1.89l.83-.83a7.53,7.53,0,0,0,3.3.83c3.9,0,4.13-9.33,4.72-17.59l-7.08-1.06s-7.79,30.45-15.93,40.6c-7.91,9.91-25.37,18.05-41.07,18.05-26.43,0-45.08-19.35-45.08-45.9,0-25.61,19.71-45.79,45.08-45.79,9.92,0,19.12,5,19.12,5s12.39-11.57,28.56-11.57c28.09,0,40.59,21.83,60,21.83,9.2,0,14.4-9.2,14.4-9.2A5.14,5.14,0,0,1,555,195.65Zm-49.33,18.76c-1.65,0-4.13,5.67-3.19,5.67s5-1.07,5-4.37C507.42,214.77,506.48,214.41,505.65,214.41Z"/><path class="cls-1" d="M507.53,264.57c-4.13,0-7.31-2.48-7.31-7.08,0-8,7.67-19,11.8-26.56.82-1.53,1.06-2.48,3.18-2.48,3.54,0,2.36,1.07,4,1.07.94,0,3.06-3.19,4.48-3.54l-15,28.56a10.45,10.45,0,0,0-1.18,4.48,2.79,2.79,0,0,0,2.83,3.07c4.49,0,24.55-22.42,27.38-25.85l1,.83C529.36,248.16,515.09,264.57,507.53,264.57Zm18.29-44.14a4.58,4.58,0,0,1-4.48-4.6,6.22,6.22,0,0,1,6-6.14,4.11,4.11,0,0,1,4.25,4C531.61,217.13,528.78,220.43,525.82,220.43Z"/><path class="cls-1" d="M566,257.49c-3.43,3.89-6.85,7.19-11.92,7.19-4.49,0-6.49-3.18-6.85-7.19-.12-1.77-.12-3.31,2.48-7.2l9.8-15a9.3,9.3,0,0,0,1.65-3.54c0-.71-.47-1.06-1.77-1.06-3.31,0-11.92,5.9-20.54,20.41-3.77,6.26-5.78,12.39-8.49,12.39-1.54,0-3.07-1.06-4.37-1.06-1.06,0-4.37,3.54-4.37,3.54l18.18-34.69c.94-1.77,1.65-2.84,3.54-2.84,2.12,0,2.48,1,4.13,1,1.06,0,2.48-2.6,4.36-3.42l-6,11.33c7.78-6.85,12.51-9.92,17.7-9.92a5.09,5.09,0,0,1,5.43,5.43c0,2.13-.59,3.78-2.25,6.37l-11,17.12c-1.18,1.77-2.13,3.3-2.13,4,0,1.41.71,2.12,2.48,2.12,2.25,0,5.9-2.83,9.8-7.08l17.35-19.12.94.83C581.52,240.14,566,257.49,566,257.49Z"/><path class="cls-1" d="M603.35,264.57c-5.19,0-7.08-2.84-9-7-4.13,5.55-7.68,7-11.22,7-4.6,0-8-3.9-8-11.69,0-10.62,11-25.49,26.43-25.49,2.48,0,4.25.36,6,2.84,0,0,1.3-1.78,2.48-1.78,1.42,0,3.54.71,5,.71.94,0,2.59-2.71,3.89-3.18l-15.46,29c-1.65,3.07-2,4.13-2,5.43a2.35,2.35,0,0,0,2.59,2.36c4.37,0,19.12-14.16,29.39-26.56l.94.83C621.88,252.41,609.25,264.57,603.35,264.57Zm0-35c-10.26,0-21.24,22.77-21.24,29.38,0,2.48.36,3.9,2.36,3.9,4.37,0,7.44-4.61,9.32-7.79,4.84-8.26,12-20.77,12-22.66A2.64,2.64,0,0,0,603.35,229.52Z"/><path class="cls-1" d="M300.51,281a26.44,26.44,0,0,0-10.65-2.14,25.26,25.26,0,0,0-12.16,2.92c0,.4,8.37,4.5,8.37,12.32,0,8.29-7,14-19.11,15.63,4.58,4.58,5.29,5.84,5.29,10.26v7.26a6.49,6.49,0,0,0,6.63,6.87A7.35,7.35,0,0,0,286.3,327c0-1.73-.79-4.26-2.84-7.81l.63-.47s3.16,4.18,3.16,8.28c0,4.66-3.79,8.21-10,8.21-6.48,0-12-4.34-12-9.86,0-4.11.63-7.58.63-10.5,0-2.05-1.11-3.79-3.47-5.37,0,0-3.63,8-4.82,10.81-3.55,8.53-17.68,14.92-30.47,14.92-13.57,0-23.91-8.76-23.91-22.65,0-15.16,13.26-28.73,27.86-28.73a31,31,0,0,1,8.52,1.42s5.69-8,21.16-8c9.87,0,15.39,3.78,15.39,3.78a30.64,30.64,0,0,1,13.74-2.92c4.26,0,6.39.48,10.81,2.37Zm-39.78-3.08c-14.68,0-20.45,7.65-20.45,7.65,3.48,2.13,7,4,9.79,9.4,3.32,6.39,2.05,11.44,2.05,11.44,1.11-.87,2.77-2.84,3-4.42l.4,1.11a8.56,8.56,0,0,1-3.55,4.42c-2.45,12.31-11.53,20.84-22.66,20.84-8.52,0-15.15-3.16-19.49-14.37,0,0-.48.63,1.1.63,3.4,7.82,8.45,13,18.39,13,10.82,0,19.1-8.2,21.71-19.81-.71.32-15.71,6.32-15.71-11.44a18,18,0,0,1,3.63-10.42,26.39,26.39,0,0,0-7.89-1.58c-14.05,0-27.15,13.58-27.15,28.18,0,12.16,8,21.55,23.2,21.55,9.71,0,17.6-5,22.18-14.53,1.5-3.23,5.29-12.47,8.61-19.89,5.36-12,17-17.92,17-17.92S270.36,277.88,260.73,277.88Zm-11.45,17.36c-2.05-3.87-5-6.55-9.63-8.84-1.81,2.76-3.47,5.53-3.47,10,0,16.65,13.89,10.89,14.84,10.5C251,306.85,252.68,301.79,249.28,295.24Zm26.84-12.78s-5.29,2.6-9.71,13a78.41,78.41,0,0,0-3.71,12.71c8.84,1.18,17.6-6.08,17.6-15.32C280.3,284.82,276.12,282.46,276.12,282.46Z"/><path class="cls-1" d="M295.94,334.39a6.84,6.84,0,0,1-6.95-7.1c0-11,12.16-17.76,18.08-17.76a4.42,4.42,0,0,1,4.5,4.34c0,7.74-13.66,10.82-16.34,10.82a10.56,10.56,0,0,0-1.42,5.52c0,1.66.55,2.92,2.13,2.92,7.89,0,19.81-12.94,22.65-17.68l.63.55C316.86,320,304.78,334.39,295.94,334.39Zm10-23.83c-2.29,0-5.92,4.26-9.94,12.23,4.42,0,11.6-7.5,11.6-10.42C307.62,311.19,307.07,310.56,306,310.56Z"/><path class="cls-1" d="M321.59,330.21a11.8,11.8,0,0,1-8.84,4.34c-4.1,0-6.23-2.21-6.23-5.6,0-2.29,1.5-4.42,3.78-4.42s3.95,2.84,5.61,3.47c2.13-1.5,3-5.21,3-6.95s-1.5-4.5-1.5-7.65c0-3.32,1.26-7.58,4.18-7.58,1.19,0,2,.47,2,1.42,0,2.37-1.42,4.26-2.44,6.08,0,0,2.37,5.21,2.37,8.6a19.16,19.16,0,0,1-1.42,7.18c5.28-1.18,9.23-2.52,16-13.65l.63.55C331.38,328.24,326.41,329.5,321.59,330.21ZM310.86,326a1.5,1.5,0,0,0-1.42,1.58c0,1.42,1.18,2,2.52,2.21s2.69-.08,3.16-.95C313.22,327.92,312.2,326,310.86,326Zm10.81-19.42c-.55,0-1.42,1.5-1.5,3.32a5.81,5.81,0,0,0,.47,2.52c1.66-2.37,2-3.55,2-5A.81.81,0,0,0,321.67,306.53Z"/><path class="cls-1" d="M349.85,326c-4.66,6.31-10,8.44-13.89,8.44-2.29,0-4.19-2.36-4.19-5.21,0-2.21.64-3.39,1.66-5.44l6.24-12.55h-5.84l1.26-1.19h6.39c4.66-3,6.48-4.89,12.47-14h.87l-8,14h5.92l-.47,1.19h-5.92l-8.21,14.36c-.95,1.66-1.82,3-1.82,4.19,0,1,1,3,2.13,3,3.16,0,8.29-4.42,10.58-7.42,0,0,5.29-6.71,7.58-9.87l.63.55A117.18,117.18,0,0,1,349.85,326Z"/><path class="cls-1" d="M370.14,334.39c-3.48,0-4.74-1.89-6-4.65-2.77,3.71-5.13,4.65-7.5,4.65-3.08,0-5.37-2.6-5.37-7.81,0-7.1,7.34-17.05,17.68-17.05a4.21,4.21,0,0,1,4,1.89s.87-1.18,1.65-1.18c.95,0,2.37.47,3.32.47.63,0,1.74-1.81,2.61-2.13L370.21,328c-1.1,2.05-1.34,2.76-1.34,3.63a1.58,1.58,0,0,0,1.74,1.58c2.92,0,12.79-9.47,19.65-17.76l.64.55C382.53,326.26,374.08,334.39,370.14,334.39Zm0-23.44c-6.87,0-14.21,15.23-14.21,19.65,0,1.66.23,2.61,1.58,2.61,2.92,0,5-3.08,6.23-5.21,3.24-5.53,8.05-13.89,8.05-15.16A1.77,1.77,0,0,0,370.14,311Z"/><path class="cls-1" d="M401.79,334.39c-2.53,0-4.26-2.05-4.66-6.63-4.1,4.66-5.44,6.63-9.71,6.63a3.85,3.85,0,0,1-4-3.94c0-2.21.39-4.42,2.6-8.37l5.92-10.73a2,2,0,0,1,2.13-1.11c.64,0,1.58.55,2.61.55.71,0,2-2,2.84-2.21l-9.39,17.68a11.21,11.21,0,0,0-1.42,4.42,1.87,1.87,0,0,0,2.05,2.06c1.1,0,6.08-4.9,9.23-10.5l6.16-11a1.87,1.87,0,0,1,1.82-1c1.18,0,1.65.55,2.84.55.71,0,1.81-1.81,2.84-2.21l-10,18.87c-.95,1.73-1.27,2.44-1.27,3.47s.63,1.58,2.05,1.58c3.56,0,11.77-7.5,18.63-17.05l.63.55C420.5,320.74,410.31,334.39,401.79,334.39Z"/><path class="cls-1" d="M425.63,334.39c-2.61,0-4.18-2.13-4.26-5.84-.08-3.47,6.63-11.52,6.63-13.73,0-.48,0-.55-.32-.55-1.66,0-2.13,2.44-5,2.44-1.26,0-2-1.26-2-3,0-2.6,2.44-6,4.57-6a1.85,1.85,0,0,1,1.9,1.82c0,1.42-1.19,3.63-2.76,5.45,4-3.32,6.31-5.45,8.28-5.45a2.93,2.93,0,0,1,2.77,3.08c0,1.66-.87,2.52-1.66,3.87l-6.24,10.65a9.8,9.8,0,0,0-1.5,3.24,1.93,1.93,0,0,0,2,2.13c5.37,0,12.32-8.76,18.08-17.05l.63.55C436.52,331.63,431.08,334.39,425.63,334.39Zm-.32-25.49c-1.58,0-3.23,3.39-3.23,4.81,0,1,.39,1.35.87,1.35,1.5-1.9,3.07-4.35,3.07-5.45A.66.66,0,0,0,425.31,308.9Z"/><path class="cls-1" d="M459.73,334.39c-3.47,0-4.74-1.89-6-4.65-2.76,3.71-5.13,4.65-7.5,4.65-3.08,0-5.37-2.6-5.37-7.81,0-7.1,7.34-17.05,17.68-17.05a4.2,4.2,0,0,1,4,1.89s.87-1.18,1.66-1.18c.95,0,2.37.47,3.31.47.63,0,1.74-1.81,2.61-2.13L459.81,328c-1.11,2.05-1.34,2.76-1.34,3.63a1.57,1.57,0,0,0,1.73,1.58c2.92,0,12.79-9.47,19.66-17.76l.63.55C472.12,326.26,463.68,334.39,459.73,334.39Zm0-23.44c-6.87,0-14.21,15.23-14.21,19.65,0,1.66.24,2.61,1.58,2.61,2.92,0,5-3.08,6.24-5.21,3.23-5.53,8.05-13.89,8.05-15.16A1.77,1.77,0,0,0,459.73,311Z"/><path class="cls-1" d="M498.72,329.66c-2.29,2.6-4.57,4.81-8,4.81-3,0-4.34-2.13-4.58-4.81-.08-1.19-.08-2.21,1.66-4.82l6.55-10a6.33,6.33,0,0,0,1.11-2.37c0-.47-.32-.71-1.19-.71-2.21,0-8,3.95-13.73,13.66-2.53,4.18-3.87,8.28-5.68,8.28-1,0-2.06-.71-2.93-.71-.71,0-2.92,2.37-2.92,2.37l12.16-23.21c.63-1.18,1.1-1.89,2.37-1.89,1.42,0,1.66.63,2.76.63.71,0,1.66-1.74,2.92-2.29l-4,7.58c5.21-4.58,8.36-6.63,11.84-6.63a3.4,3.4,0,0,1,3.63,3.63,7.37,7.37,0,0,1-1.5,4.26l-7.34,11.45a8,8,0,0,0-1.42,2.68c0,.95.47,1.42,1.65,1.42,1.5,0,4-1.89,6.55-4.73l11.61-12.79.63.55C509.14,318.05,498.72,329.66,498.72,329.66Z"/><path class="cls-1" d="M522,326c-4.66,6.31-10,8.44-13.89,8.44-2.29,0-4.19-2.36-4.19-5.21,0-2.21.64-3.39,1.66-5.44l6.24-12.55H506l1.26-1.19h6.39c4.66-3,6.47-4.89,12.47-14H527l-8,14h5.92l-.47,1.19h-5.92l-8.21,14.36c-.95,1.66-1.82,3-1.82,4.19,0,1,1,3,2.13,3,3.16,0,8.29-4.42,10.58-7.42,0,0,5.29-6.71,7.58-9.87l.63.55A117.18,117.18,0,0,1,522,326Z"/><path class="cls-1" d="M530.38,334.39a6.84,6.84,0,0,1-7-7.1c0-11,12.16-17.76,18.08-17.76a4.42,4.42,0,0,1,4.5,4.34c0,7.74-13.66,10.82-16.34,10.82a10.56,10.56,0,0,0-1.42,5.52c0,1.66.55,2.92,2.13,2.92,7.89,0,19.81-12.94,22.65-17.68l.63.55C551.29,320,539.22,334.39,530.38,334.39Zm10-23.83c-2.29,0-5.92,4.26-9.94,12.23,4.42,0,11.6-7.5,11.6-10.42C542.06,311.19,541.51,310.56,540.4,310.56Z"/><path class="cls-1" d="M632,301.08c-5.37,2.53-12.48,5.45-14.05,6.4,6.23.31,9.7,5.52,9.7,10.65,0,8.92-7.89,15.87-18.15,15.87-7.89,0-15.55-4.11-18.16-10.5a20,20,0,0,1-5,.71c-6.87,0-12.63-4.89-12.63-10.73,0-3,1.5-5.21,3.71-5.37-.08,1.26-.16,2.37-.16,3.31,0,5.92,4.19,10.66,9.48,10.66a25.62,25.62,0,0,0,3.79-.39,26.41,26.41,0,0,1-.72-5.77c0-10.1,7.11-18.23,17.45-18.23-2.21-3-2.76-4.34-2.76-7.34,0-7.42,6.23-13,14.76-13,6.71,0,12.15,3.87,12.15,8.61a6.81,6.81,0,0,1-6.55,6.55c-2.84,0-4.42-1.11-6-4l1.27-.15c1.49,2.13,2.76,2.92,4.81,2.92a5.44,5.44,0,0,0,5.21-5.29c0-3.24-2.92-5.53-6.95-5.53a12.32,12.32,0,0,0-12.15,12.16c0,3.23.63,5.13,4.34,7.73l.24.87a26.61,26.61,0,0,0-4-.31c-6.55,0-13.58,7.42-12.55,17.05a32.51,32.51,0,0,1,6-3c.47-5.37,6.63-10,15.86-12.87,15.63-4.82,19.26-7.1,19.26-12.24,0-1.89-.39-2.84-2-5.05l.55-.55c2.29,2.21,2.93,3.39,2.93,5.68C641.6,294.14,637.73,298.32,632,301.08Zm-15.32,8c-3.08,0-4.58,1-7,4.5a19.83,19.83,0,0,1,4.5-.79c3.71,0,6.94,3,6.94,6.39,0,3.16-2.92,5.6-6.79,5.6-4.34,0-8.92-2.76-9.15-8.28a39.5,39.5,0,0,0-5.76,3.31c.86,5.84,6.94,11.68,13.49,11.68A13.36,13.36,0,0,0,626,318.21,9.1,9.1,0,0,0,616.65,309.06ZM613.89,314a13.56,13.56,0,0,0-4.89,1.26,8.91,8.91,0,0,0-.4,2.77,5.41,5.41,0,0,0,5.76,5.52,4.82,4.82,0,0,0,4.9-4.66A5.09,5.09,0,0,0,613.89,314Z"/><path class="cls-1" d="M758.18,295.79l-.79-.78c3.79-.79,6.24-2.85,6.24-4.74,0-4-7.42-7.74-14.21-7.74-3.94,0-6.23.71-11,2.77,2.37,2.6,6,5.76,6,10.49,0,5.45-2.53,8.53-9.71,12.71,2.84,3.48,3.79,6.56,3.79,12.16a33.68,33.68,0,0,0,8.53-5.29l.63.63a37.1,37.1,0,0,1-9.63,6,21.19,21.19,0,0,1-20.37,13.26c-3.31-.08-5.37-1.42-5.37-3.79,0-7.65,13.11-8.92,17.76-8.92,2.21-2.05,3.24-7.57,2.14-13.57a7.84,7.84,0,0,1-2.06.15c-1.1,0-3.15-.94-3.15-2.28s1.65-1.74,2.52-1.74a6.79,6.79,0,0,1,3.79,1.74s6.32-5.53,6.32-11.06c0-6.86-2.06-8.84-3.16-9.47-3.16,1.58-8.84,9.47-8.84,9.47-3.79,5.53-3.79,13.58-7.9,19.9-8,12.31-16.26,19.57-33.54,19.57-13.42,0-23.45-8.52-23.45-22.18,0-15.39,13-28.73,28-28.73a28.16,28.16,0,0,1,9.78,2.29c5.21-3,8.61-6.32,20.53-6.32,9.07,0,12.86,2.85,15.94,4.11,2.69-.95,6-2.84,12.55-2.84,7.74,0,15.39,4.26,15.39,8.68C764.81,292.8,761.66,295.24,758.18,295.79Zm-37.25-14.68c-9.79,0-14,2.29-19.74,6.16,7.58,4.66,11.29,10.18,11.29,18.15a12.07,12.07,0,0,1-.39,2.77c1.18-1.9,2.36-3.24,2.44-5.53.08-2.13-1-3.94-1.65-5.29l.86-.23a9.43,9.43,0,0,1,1.82,5.44c0,2.92-1.82,5.61-4.26,8.05-2.13,6.4-8,11.21-14.76,11.21v-1.1c2.36.39,10.42-1.66,12.78-8.84a23.1,23.1,0,0,1-5.6,1.18c-7,0-11.37-5.21-11.37-12.39,0-7.74,5.61-11.76,7.19-13.26a24.08,24.08,0,0,0-8.92-2.29c-13.5,0-27.08,12.79-27.08,27.94,0,12,8.68,21.16,22.58,21.16,6.39,0,14-3.87,19.65-9.79,6.32-6.63,8.68-15,9.79-17.84,4-10.58,12.55-18.47,19.81-21.31A27.07,27.07,0,0,0,720.93,281.11Zm-20.53,6.71c-3.71,3.55-7.18,6.79-7.18,12.95,0,6.87,4.26,11.29,10.5,11.29a8.91,8.91,0,0,0,6.63-2.61c.79-1.81,1.18-2.53,1.18-4C711.53,299.9,709.24,292.72,700.4,287.82Zm12.79,43.65c0,1.5,1.58,2.37,3.32,2.37,7.26.16,12.63-9.47,13.26-10.1C723.45,323.66,713.19,325.24,713.19,331.47Zm16.26-25.33c-.63,0-1,.23-1,.71s1,1.1,1.58,1.1a6.87,6.87,0,0,0,1.82-.31S730.71,306.14,729.45,306.14Z"/><path class="cls-1" d="M760.56,334.39c-3.48,0-4.74-1.89-6-4.65-2.77,3.71-5.13,4.65-7.5,4.65-3.08,0-5.37-2.6-5.37-7.81,0-7.1,7.34-17.05,17.68-17.05a4.21,4.21,0,0,1,4,1.89s.87-1.18,1.65-1.18c1,0,2.37.47,3.32.47.63,0,1.74-1.81,2.6-2.13L760.63,328c-1.1,2.05-1.34,2.76-1.34,3.63a1.58,1.58,0,0,0,1.74,1.58c2.92,0,12.79-9.47,19.65-17.76l.64.55C773,326.26,764.5,334.39,760.56,334.39Zm0-23.44c-6.87,0-14.21,15.23-14.21,19.65,0,1.66.23,2.61,1.58,2.61,2.92,0,5-3.08,6.23-5.21,3.24-5.53,8.05-13.89,8.05-15.16A1.77,1.77,0,0,0,760.56,311Z"/><path class="cls-1" d="M783.29,334.39c-2.61,0-4.18-2.13-4.26-5.84-.08-3.47,6.63-11.52,6.63-13.73,0-.48,0-.55-.32-.55-1.66,0-2.13,2.44-5,2.44-1.26,0-2-1.26-2-3,0-2.6,2.44-6,4.57-6a1.85,1.85,0,0,1,1.9,1.82c0,1.42-1.19,3.63-2.76,5.45,4-3.32,6.31-5.45,8.28-5.45a2.93,2.93,0,0,1,2.77,3.08c0,1.66-.87,2.52-1.66,3.87l-6.24,10.65a10,10,0,0,0-1.5,3.24,1.93,1.93,0,0,0,2.06,2.13c5.36,0,12.31-8.76,18.07-17.05l.63.55C794.18,331.63,788.74,334.39,783.29,334.39ZM783,308.9c-1.57,0-3.23,3.39-3.23,4.81,0,1,.39,1.35.87,1.35,1.5-1.9,3.07-4.35,3.07-5.45A.65.65,0,0,0,783,308.9Z"/><path class="cls-1" d="M669.18,220.47s105,0,115.43,0c9.54,0,238.35.21,238.35.21l0,4.17S998.94,259,820.7,259c-9-26.18-44.75-15.16-49.28-13.18-9.09,0-102.29-.55-102.29-.55l0-.09a.73.73,0,0,1-.3.05c-8.56,0-15.51-5.52-15.44-12.34s6.94-12.38,15.44-12.35a.29.29,0,0,1,.26,0Z"/><path class="cls-1" d="M0,215.36v5.51l98.85-1.63,0,6.62H0l0,4.83H99.48v5.49H0v5.34H99.48V248L0,246.16v5l84.14,6.11s3.17.15,4.37.15c13,0,24.58-3.51,32.12-9,35-18.11,70.69-5.75,79.17-5.75H353.66v0l.33,0c8.86,0,16-4.2,16-9.36s-7.2-9.37-16-9.37c-.14,0-.24,0-.3,0h0l-153.6,0c-9.83,0-50.9,10.46-81.4-7l-.19-.08c-6.91-4.25-16.43-7.06-27.13-7.49-.75,0-2.65,0-2.65,0Z"/></g></g></svg>